<svg xmlns="http://www.w3.org/2000/svg" viewBox="0 0 512 512" style="enable-background:new 0 0 512 512" xml:space="preserve"><circle cx="256" cy="256" r="256" style="fill:#040404"/><path d="M258.7 180.3c0-12 9.8-21.7 21.8-21.7h39.1v-52.9h-39.1c-41.4 0-75 33.4-75 74.6 0 10.7 2.3 21 6.4 30.2-32.2 13.5-53.5 42.3-58.5 78.7-5.8 39.9 10.3 83 45.3 103.9 31.3 19.6 80.1 18.3 106.5-8.9v18h54.4V202h-79.1c-12 0-21.8-9.7-21.8-21.7m47.8 74.6v50.2c-.1 27.8-22.7 50.3-50.5 50.2-27.8.1-50.4-22.4-50.5-50.2.1-27.8 22.7-50.3 50.5-50.2h50.5z" style="fill:#bff007"/></svg>