<svg width="663" height="663" viewBox="0 0 663 663" fill="none" xmlns="http://www.w3.org/2000/svg" class="_methodIcon_do7cs_92"><circle cx="331.5" cy="331.5" r="331.5" fill="#4DA2FF"></circle><path fill-rule="evenodd" clip-rule="evenodd" d="M427.661 297.463C444.449 318.615 454.489 345.365 454.489 374.463C454.489 403.562 444.144 431.128 426.915 452.399L425.422 454.237L425.033 451.905C424.693 449.931 424.304 447.923 423.845 445.916C415.214 407.866 387.098 375.246 340.819 348.819C309.564 331.02 291.674 309.613 286.977 285.262C283.942 269.523 286.197 253.714 290.555 240.168C294.913 226.641 301.391 215.291 306.903 208.467L324.912 186.379C328.067 182.5 333.985 182.5 337.138 186.379L427.678 297.463H427.661ZM456.134 275.393L335.46 127.349C333.154 124.524 328.846 124.524 326.54 127.349L205.883 275.393L205.493 275.887C183.295 303.539 170 338.678 170 376.931C170 466.012 242.089 538.23 331 538.23C419.912 538.23 492 466.012 492 376.931C492 338.678 478.705 303.539 456.507 275.903L456.116 275.41L456.134 275.393ZM234.763 296.987L245.548 283.731L245.871 286.181C246.125 288.121 246.447 290.061 246.82 292.018C253.807 328.791 278.752 359.438 320.452 383.175C356.708 403.885 377.821 427.691 383.892 453.794C386.436 464.685 386.877 475.405 385.774 484.782L385.707 485.36L385.181 485.615C368.817 493.629 350.417 498.139 330.983 498.139C262.795 498.139 207.511 442.768 207.511 374.446C207.511 345.11 217.703 318.172 234.729 296.953L234.763 296.987Z" fill="white"></path></svg>
