<svg width="69" height="61" viewBox="0 0 69 61" fill="none" xmlns="http://www.w3.org/2000/svg" class="_methodIcon_do7cs_92"><path d="M38.0523 57.5523C35.2158 58.4732 32.1846 58.9706 29.0325 58.9706C12.9615 58.9706 0.0324707 46.0415 0.0324707 29.9706C0.0324707 13.8997 12.9615 0.970581 29.0325 0.970581C43.9217 0.970581 56.1141 12.0682 57.8266 26.4803C47.458 23.9835 37.001 30.3476 34.4085 40.7102C33.7858 43.1929 33.6591 45.774 34.0357 48.3056C34.4124 50.8373 35.2849 53.2698 36.6033 55.4636C37.0412 56.1923 37.5254 56.8898 38.0523 57.5523Z" fill="#2775CA"></path><path d="M29.3947 28.279C34.4697 28.8831 37.0072 30.3331 37.0072 34.5622C37.0072 34.6293 37.0062 34.6961 37.0042 34.7625C36.1082 36.1323 35.3742 37.6332 34.8358 39.2448C33.825 40.1053 32.5042 40.71 30.9657 40.9665V43.8665C30.8447 44.4706 30.4822 44.8331 29.9988 44.8331H28.1863C27.5822 44.7122 27.2197 44.3497 27.2197 43.8665V40.9665C23.2322 40.3622 21.2988 38.1872 20.8157 35.1665V35.0456C20.8157 34.5622 21.1782 34.1997 21.6613 34.1997H23.7157C24.0782 34.1997 24.4407 34.4415 24.5613 34.9247C24.9238 36.7372 26.0113 38.0665 29.1532 38.0665C31.4488 38.0665 33.1407 36.7375 33.1407 34.804C33.1407 32.8706 32.0532 32.1456 28.6697 31.5415C23.5947 30.9372 21.1782 29.3665 21.1782 25.379C21.1782 22.3581 23.4738 19.9415 27.0988 19.4581V16.679C27.2197 16.0747 27.5822 15.7122 28.0657 15.7122H29.8782C30.4822 15.8331 30.8447 16.1956 30.8447 16.679V19.579C33.6238 19.8206 35.7988 21.8747 36.2822 24.5331V24.654C36.2822 25.1372 35.9197 25.4997 35.4363 25.4997H33.5032C33.1407 25.4997 32.7782 25.2581 32.6572 24.8956C32.0532 23.0831 30.8447 22.3581 28.6697 22.3581C26.2532 22.3581 25.0447 23.4453 25.0447 25.1372C25.0447 26.829 25.7697 27.7956 29.3947 28.279Z" fill="white"></path><path d="M12.1158 24.0497C8.61146 33.354 13.4449 43.8665 22.8699 47.2497C23.2324 47.4915 23.5949 47.9747 23.5949 48.3372V50.029C23.5949 50.2706 23.5949 50.3915 23.474 50.5122C23.3533 50.9956 22.8699 51.2372 22.3865 50.9956C15.6199 48.8206 10.424 43.6247 8.24896 36.8581C4.62396 25.379 10.9074 13.1747 22.3865 9.54966C22.5074 9.42902 22.749 9.42902 22.8699 9.42902C23.3533 9.54966 23.5949 9.91216 23.5949 10.3956V12.0872C23.5949 12.6915 23.3533 13.054 22.8699 13.2956C17.9158 15.1081 13.9283 18.9747 12.1158 24.0497Z" fill="white"></path><path d="M34.5908 10.0331C34.7115 9.54966 35.1949 9.30809 35.6783 9.54966C42.324 11.7247 47.6408 16.9206 49.8158 23.8081C50.0618 24.5871 50.2622 25.3694 50.4184 26.1521C49.1733 26.3393 47.957 26.6469 46.7849 27.0654C45.65 21.0058 41.4259 15.6532 35.1949 13.4165C34.8324 13.1747 34.4699 12.6915 34.4699 12.2081V10.5165C34.4699 10.2747 34.4699 10.154 34.5908 10.0331Z" fill="white"></path><path d="M34.4847 50.4699C34.4978 50.5547 34.5196 50.6344 34.5501 50.7084C34.5278 50.6291 34.506 50.5496 34.4847 50.4699Z" fill="white"></path><circle cx="53.308" cy="45.4211" r="15.485" fill="#8247E5"></circle><g clip-path="url(#clip0_2029_14798)"><path d="M58.6237 42.1469C58.2462 41.9312 57.7609 41.9312 57.3294 42.1469L54.3095 43.9265L52.2602 45.059L49.2942 46.8386C48.9167 47.0543 48.4313 47.0543 47.9999 46.8386L45.681 45.4365C45.3035 45.2208 45.0339 44.7894 45.0339 44.304V41.6076C45.0339 41.1762 45.2496 40.7448 45.681 40.4751L47.9999 39.1269C48.3774 38.9112 48.8628 38.9112 49.2942 39.1269L51.6131 40.529C51.9906 40.7448 52.2602 41.1762 52.2602 41.6615V43.4412L54.3095 42.2547V40.4212C54.3095 39.9898 54.0938 39.5583 53.6623 39.2887L49.3481 36.7541C48.9706 36.5384 48.4853 36.5384 48.0538 36.7541L43.6318 39.3426C43.2003 39.5583 42.9846 39.9898 42.9846 40.4212V45.4904C42.9846 45.9218 43.2003 46.3533 43.6318 46.6229L47.9999 49.1575C48.3774 49.3732 48.8628 49.3732 49.2942 49.1575L52.2602 47.4318L54.3095 46.2454L57.2755 44.5197C57.653 44.304 58.1383 44.304 58.5698 44.5197L60.8887 45.8679C61.2662 46.0836 61.5358 46.515 61.5358 47.0004V49.6968C61.5358 50.1282 61.3201 50.5596 60.8887 50.8293L58.6237 52.1775C58.2462 52.3932 57.7609 52.3932 57.3294 52.1775L55.0105 50.8293C54.633 50.6136 54.3634 50.1821 54.3634 49.6968V47.9711L52.3141 49.1575V50.9371C52.3141 51.3686 52.5298 51.8 52.9613 52.0696L57.3294 54.6042C57.7069 54.8199 58.1923 54.8199 58.6237 54.6042L62.9919 52.0696C63.3693 51.8539 63.639 51.4225 63.639 50.9371V45.814C63.639 45.3826 63.4233 44.9511 62.9919 44.6815L58.6237 42.1469Z" fill="white"></path></g><defs><clipPath id="clip0_2029_14798"><rect width="20.7083" height="18.0658" fill="white" transform="translate(42.9846 36.6462)"></rect></clipPath></defs></svg>
