<svg width="69" height="61" viewBox="0 0 69 61" fill="none" xmlns="http://www.w3.org/2000/svg" class="_methodIcon_do7cs_92"><g clip-path="url(#clip0_383_3269)"><path d="M38.0511 57.5505C35.2146 58.4714 32.1834 58.9688 29.0313 58.9688C12.9603 58.9688 0.03125 46.0397 0.03125 29.9688C0.03125 13.8979 12.9603 0.96875 29.0313 0.96875C43.9205 0.96875 56.1129 12.0664 57.8254 26.4785C47.4568 23.9817 36.9998 30.3458 34.4073 40.7084C33.7846 43.1911 33.6579 45.7722 34.0345 48.3038C34.4112 50.8355 35.2837 53.268 36.6021 55.4618C37.04 56.1905 37.5242 56.888 38.0511 57.5505Z" fill="#2775CA"></path><path d="M29.3954 28.2777C34.4704 28.8818 37.0079 30.3318 37.0079 34.5609C37.0079 34.628 37.0069 34.6948 37.0049 34.7612C36.1089 36.131 35.3749 37.6319 34.8365 39.2435C33.8257 40.104 32.5049 40.7087 30.9664 40.9652V43.8652C30.8454 44.4693 30.4829 44.8318 29.9995 44.8318H28.187C27.5829 44.7109 27.2204 44.3484 27.2204 43.8652V40.9652C23.2329 40.3609 21.2995 38.1859 20.8164 35.1652V35.0443C20.8164 34.5609 21.1789 34.1984 21.662 34.1984H23.7164C24.0789 34.1984 24.4414 34.4402 24.562 34.9234C24.9245 36.7359 26.012 38.0652 29.1539 38.0652C31.4495 38.0652 33.1414 36.7362 33.1414 34.8027C33.1414 32.8693 32.0539 32.1443 28.6704 31.5402C23.5954 30.9359 21.1789 29.3652 21.1789 25.3777C21.1789 22.3568 23.4745 19.9402 27.0995 19.4568V16.6777C27.2204 16.0734 27.5829 15.7109 28.0664 15.7109H29.8789C30.4829 15.8318 30.8454 16.1943 30.8454 16.6777V19.5777C33.6245 19.8193 35.7995 21.8734 36.2829 24.5318V24.6527C36.2829 25.1359 35.9204 25.4984 35.437 25.4984H33.5039C33.1414 25.4984 32.7789 25.2568 32.6579 24.8943C32.0539 23.0818 30.8454 22.3568 28.6704 22.3568C26.2539 22.3568 25.0454 23.444 25.0454 25.1359C25.0454 26.8277 25.7704 27.7943 29.3954 28.2777Z" fill="white"></path><path d="M12.1151 24.0504C8.61072 33.3547 13.4442 43.8672 22.8692 47.2504C23.2317 47.4922 23.5942 47.9754 23.5942 48.3379V50.0297C23.5942 50.2713 23.5942 50.3922 23.4733 50.5129C23.3526 50.9963 22.8692 51.2379 22.3858 50.9963C15.6192 48.8213 10.4233 43.6254 8.24822 36.8588C4.62322 25.3797 10.9067 13.1754 22.3858 9.55033C22.5067 9.42969 22.7483 9.42969 22.8692 9.42969C23.3526 9.55033 23.5942 9.91283 23.5942 10.3963V12.0879C23.5942 12.6922 23.3526 13.0547 22.8692 13.2963C17.9151 15.1088 13.9276 18.9754 12.1151 24.0504Z" fill="white"></path><path d="M34.5897 10.0313C34.7104 9.54789 35.1938 9.30632 35.6772 9.54789C42.3229 11.7229 47.6397 16.9188 49.8147 23.8063C50.0607 24.5853 50.2611 25.3676 50.4173 26.1503C49.1722 26.3375 47.9559 26.6451 46.7838 27.0636C45.6489 21.004 41.4248 15.6514 35.1938 13.4147C34.8313 13.1729 34.4688 12.6897 34.4688 12.2063V10.5147C34.4688 10.2729 34.4688 10.1522 34.5897 10.0313Z" fill="white"></path><path d="M34.4844 50.4688C34.4975 50.5535 34.5193 50.6333 34.5498 50.7073C34.5275 50.628 34.5057 50.5485 34.4844 50.4688Z" fill="white"></path><rect x="37" y="29" width="32" height="32" rx="16" fill="#2C374B"></rect><g clip-path="url(#clip1_383_3269)"><mask id="mask0_383_3269" maskUnits="userSpaceOnUse" x="42" y="34" width="24" height="23" style="mask-type: luminance;"><path d="M42.1289 34H65.1077V56.9788H42.1289V34Z" fill="white"></path></mask><g mask="url(#mask0_383_3269)"><mask id="mask1_383_3269" maskUnits="userSpaceOnUse" x="42" y="34" width="23" height="23" style="mask-type: luminance;"><path d="M42.1328 34H64.1924V56.0596H42.1328V34Z" fill="white"></path></mask><g mask="url(#mask1_383_3269)"><path d="M44.1299 40.7063V49.354C44.1299 49.9093 44.4209 50.4129 44.9054 50.6944L52.3974 55.0192C52.6326 55.1536 52.8987 55.2243 53.1696 55.2243C53.4405 55.2243 53.7066 55.1536 53.9418 55.0192L61.4338 50.6954C61.9097 50.4215 62.2094 49.9103 62.2094 49.354V40.7063C62.2098 40.4343 62.1383 40.1671 62.0021 39.9316C61.8659 39.6962 61.6699 39.501 61.4338 39.3659L53.9408 35.0411C53.7057 34.9067 53.4395 34.8359 53.1687 34.8359C52.8978 34.8359 52.6316 34.9067 52.3965 35.0411L44.9064 39.3649C44.6716 39.5011 44.477 39.6969 44.3421 39.9324C44.2073 40.168 44.1371 40.4349 44.1385 40.7063H44.1299Z" fill="#213147"></path><path d="M54.8022 46.7019L53.7347 49.6317C53.7082 49.7149 53.7082 49.8042 53.7347 49.8874L55.5701 54.9255L57.6956 53.6999L55.1459 46.7019C55.1327 46.6671 55.1092 46.6371 55.0785 46.6159C55.0478 46.5947 55.0114 46.5834 54.9741 46.5834C54.9368 46.5834 54.9004 46.5947 54.8697 46.6159C54.839 46.6371 54.8154 46.6671 54.8022 46.7019ZM56.9459 41.7787C56.9327 41.7439 56.9092 41.7139 56.8785 41.6927C56.8478 41.6715 56.8114 41.6602 56.7741 41.6602C56.7368 41.6602 56.7004 41.6715 56.6697 41.6927C56.639 41.7139 56.6154 41.7439 56.6022 41.7787L55.5347 44.7085C55.5082 44.7917 55.5082 44.881 55.5347 44.9642L58.5439 53.2145L60.6695 51.9871L56.9459 41.7874V41.7787Z" fill="#12AAFF"></path><path d="M53.1671 35.3673C53.2204 35.3685 53.2723 35.3841 53.3174 35.4123L61.4175 40.0885C61.464 40.1152 61.5024 40.1539 61.5289 40.2005C61.5553 40.2472 61.5687 40.3001 61.5678 40.3537V49.706C61.5668 49.7593 61.5525 49.8114 61.5263 49.8577C61.5 49.904 61.4626 49.943 61.4175 49.9712L53.3174 54.6474C53.2722 54.6753 53.2203 54.6905 53.1671 54.6915C53.114 54.6905 53.0621 54.6753 53.0168 54.6474L44.9168 49.9712C44.8703 49.9445 44.8318 49.9058 44.8054 49.8592C44.779 49.8125 44.7655 49.7596 44.7665 49.706V40.3441C44.7665 40.2388 44.8287 40.1335 44.9168 40.0798L53.0168 35.4027C53.0621 35.3748 53.114 35.3596 53.1671 35.3587V35.3682V35.3673ZM53.1671 34.0001C52.8761 34.0001 52.5936 34.0709 52.3294 34.2203L44.2294 38.8974C43.9743 39.0431 43.7624 39.2536 43.6151 39.5077C43.4678 39.7618 43.3903 40.0504 43.3906 40.3441V49.6984C43.3906 50.2977 43.7075 50.8444 44.2284 51.1441L52.3284 55.8213C52.585 55.9716 52.8761 56.0415 53.1671 56.0415C53.4582 56.0415 53.7416 55.9716 54.0059 55.8213L62.1059 51.1451C62.6267 50.8444 62.9436 50.2977 62.9436 49.6974V40.3441C62.9436 39.7447 62.6267 39.1971 62.1059 38.8974L53.9963 34.2203C53.7415 34.0738 53.4524 33.9978 53.1585 34.0001H53.1671Z" fill="#9DCCED"></path><path d="M47.8017 53.2306L48.5514 51.1836L50.0517 52.4283L48.6472 53.7151L47.8008 53.2297L47.8017 53.2306Z" fill="#213147"></path><path d="M52.4785 39.6854H50.4228C50.3481 39.6861 50.2753 39.7091 50.2139 39.7516C50.1524 39.7941 50.1051 39.8541 50.0781 39.9238L45.6758 51.9934L47.8013 53.2198L52.6556 39.9228C52.6661 39.8954 52.6698 39.8658 52.6664 39.8366C52.663 39.8074 52.6526 39.7795 52.636 39.7552C52.6194 39.7309 52.5972 39.711 52.5713 39.6972C52.5454 39.6833 52.5165 39.676 52.4871 39.6758L52.4785 39.6854ZM56.0785 39.6854H54.0228C53.9481 39.6861 53.8753 39.7091 53.8139 39.7516C53.7524 39.7941 53.7051 39.8541 53.6781 39.9238L48.6506 53.7062L50.7761 54.9327L56.247 39.9238C56.2575 39.8964 56.2612 39.8669 56.2578 39.8378C56.2545 39.8087 56.2441 39.7808 56.2277 39.7565C56.2112 39.7323 56.1891 39.7123 56.1633 39.6985C56.1375 39.6846 56.1087 39.6771 56.0794 39.6767V39.6854H56.0785Z" fill="white"></path></g></g></g></g><defs><clipPath id="clip0_383_3269"><rect width="69" height="61" fill="white"></rect></clipPath><clipPath id="clip1_383_3269"><rect width="22.0213" height="22.0213" fill="white" transform="translate(42.125 34)"></rect></clipPath></defs></svg>
