<svg width="47" height="40" viewBox="0 0 47 40" fill="none" xmlns="http://www.w3.org/2000/svg" class="_methodIcon_do7cs_92"><path d="M25.9618 37.7617C24.0687 38.3763 22.0457 38.7083 19.942 38.7083C9.21655 38.7083 0.587891 30.0796 0.587891 19.3541C0.587891 8.62866 9.21655 0 19.942 0C29.8789 0 38.0159 7.40636 39.1588 17.0248C32.2389 15.3584 25.2601 19.6058 23.5299 26.5216C23.1143 28.1785 23.0298 29.9011 23.2811 31.5907C23.5325 33.2803 24.1148 34.9037 24.9947 36.3678C25.287 36.8541 25.6101 37.3196 25.9618 37.7617Z" fill="#2775CA"></path><path d="M20.1845 18.2252C23.5715 18.6283 25.265 19.596 25.265 22.4185C25.265 22.4632 25.2643 22.5078 25.2629 22.5522C24.665 23.4663 24.1751 24.468 23.8158 25.5436C23.1412 26.1179 22.2597 26.5214 21.2329 26.6926V28.628C21.1522 29.0312 20.9103 29.2731 20.5877 29.2731H19.378C18.9749 29.1924 18.733 28.9505 18.733 28.628V26.6926C16.0718 26.2893 14.7814 24.8377 14.459 22.8218V22.7411C14.459 22.4185 14.7009 22.1765 15.0234 22.1765H16.3944C16.6363 22.1765 16.8783 22.3379 16.9588 22.6604C17.2007 23.87 17.9265 24.7572 20.0233 24.7572C21.5554 24.7572 22.6845 23.8702 22.6845 22.5799C22.6845 21.2895 21.9587 20.8057 19.7007 20.4025C16.3137 19.9992 14.7009 18.951 14.7009 16.2898C14.7009 14.2736 16.233 12.6609 18.6523 12.3382V10.4835C18.733 10.0802 18.9749 9.83826 19.2975 9.83826H20.5072C20.9103 9.91896 21.1522 10.1609 21.1522 10.4835V12.4189C23.0069 12.5802 24.4585 13.951 24.7811 15.7252V15.8059C24.7811 16.1284 24.5392 16.3703 24.2166 16.3703H22.9264C22.6845 16.3703 22.4426 16.2091 22.3619 15.9671C21.9587 14.7575 21.1522 14.2736 19.7007 14.2736C18.0879 14.2736 17.2814 14.9992 17.2814 16.1284C17.2814 17.2575 17.7653 17.9025 20.1845 18.2252Z" fill="white"></path><path d="M8.65185 15.4026C6.31309 21.6122 9.53885 28.6281 15.8289 30.8859C16.0709 31.0473 16.3128 31.3698 16.3128 31.6117V32.7408C16.3128 32.902 16.3128 32.9827 16.2321 33.0633C16.1516 33.3859 15.8289 33.5471 15.5063 33.3859C10.9904 31.9343 7.52273 28.4667 6.07117 23.9507C3.6519 16.2898 7.84536 8.1448 15.5063 5.72553C15.587 5.64502 15.7482 5.64502 15.8289 5.64502C16.1516 5.72553 16.3128 5.96746 16.3128 6.29009V7.41902C16.3128 7.82236 16.1516 8.06429 15.8289 8.22551C12.5227 9.43514 9.86148 12.0156 8.65185 15.4026Z" fill="white"></path><path d="M23.6513 6.04817C23.7318 5.72553 24.0545 5.56431 24.3771 5.72553C28.8123 7.17709 32.3607 10.6448 33.8122 15.2414C33.9764 15.7613 34.1101 16.2834 34.2144 16.8058C33.3835 16.9307 32.5717 17.136 31.7894 17.4153C31.0321 13.3712 28.2129 9.79891 24.0545 8.30621C23.8125 8.1448 23.5706 7.82236 23.5706 7.49973V6.3708C23.5706 6.20939 23.5706 6.12887 23.6513 6.04817Z" fill="white"></path><path d="M23.5805 33.0351C23.5892 33.0916 23.6038 33.1449 23.6241 33.1942C23.6092 33.1413 23.5947 33.0882 23.5805 33.0351Z" fill="white"></path><circle cx="36.143" cy="29.6655" r="10.3344" fill="#4DA2FF"></circle><path fill-rule="evenodd" clip-rule="evenodd" d="M32.9996 28.2648C32.4781 28.9236 32.1662 29.7568 32.1662 30.6631C32.1662 31.5694 32.4876 32.428 33.0228 33.0905L33.0692 33.1477L33.0813 33.0751C33.0918 33.0136 33.1039 32.9511 33.1182 32.8886C33.3863 31.7034 34.2597 30.6875 35.6974 29.8644C36.6683 29.31 37.2241 28.6432 37.37 27.8848C37.4643 27.3946 37.3942 26.9022 37.2588 26.4803C37.1235 26.059 36.9222 25.7054 36.751 25.4929L36.1915 24.8049C36.0935 24.6841 35.9097 24.6841 35.8117 24.8049L32.9991 28.2648H32.9996ZM32.1151 27.5774L35.8639 22.9664C35.9355 22.8784 36.0693 22.8784 36.141 22.9664L39.8892 27.5774L39.9013 27.5928C40.5909 28.454 41.0039 29.5485 41.0039 30.7399C41.0039 33.5145 38.7644 35.7638 36.0024 35.7638C33.2403 35.7638 31.0009 33.5145 31.0009 30.7399C31.0009 29.5485 31.4139 28.454 32.1035 27.5933L32.1157 27.5779L32.1151 27.5774ZM38.992 28.25L38.657 27.8371L38.647 27.9134C38.6391 27.9738 38.6291 28.0343 38.6175 28.0952C38.4004 29.2406 37.6255 30.1951 36.3301 30.9344C35.2038 31.5795 34.5479 32.3209 34.3593 33.1339C34.2803 33.4732 34.2666 33.807 34.3009 34.0991L34.3029 34.1171L34.3193 34.125C34.8276 34.3746 35.3992 34.5151 36.0029 34.5151C38.1212 34.5151 39.8386 32.7905 39.8386 30.6625C39.8386 29.7488 39.522 28.9098 38.9931 28.2489L38.992 28.25Z" fill="white"></path></svg>
