<svg width="46" height="40" viewBox="0 0 46 40" fill="none" xmlns="http://www.w3.org/2000/svg" class="_methodIcon_do7cs_92"><g clip-path="url(#clip0_5032_36336)"><mask id="mask0_5032_36336" maskUnits="userSpaceOnUse" x="0" y="0" width="46" height="40" style="mask-type: luminance;"><path d="M45.9432 0H0.697266V40H45.9432V0Z" fill="white"></path></mask><g mask="url(#mask0_5032_36336)"><path d="M25.6478 37.738C23.7878 38.3419 21.8002 38.6681 19.7332 38.6681C9.19486 38.6681 0.716797 30.19 0.716797 19.6517C0.716797 9.11338 9.19486 0.635254 19.7332 0.635254C29.4966 0.635254 37.4916 7.9124 38.6146 17.363C31.8155 15.7257 24.9585 19.8989 23.2585 26.694C22.8501 28.322 22.7671 30.0146 23.014 31.6746C23.261 33.3348 23.8332 34.9298 24.6977 36.3684C24.9848 36.8462 25.3023 37.3036 25.6478 37.738Z" fill="#2775CA"></path><path d="M19.9713 18.5428C23.2991 18.9389 24.9631 19.8897 24.9631 22.6629C24.9631 22.7069 24.9624 22.7507 24.9611 22.7942C24.3736 23.6925 23.8923 24.6767 23.5392 25.7335C22.8764 26.2977 22.0103 26.6942 21.0014 26.8624V28.7641C20.9221 29.1602 20.6844 29.3979 20.3674 29.3979H19.1789C18.7828 29.3186 18.545 29.0809 18.545 28.7641V26.8624C15.9303 26.4662 14.6625 25.04 14.3457 23.0592V22.9799C14.3457 22.6629 14.5834 22.4252 14.9002 22.4252H16.2473C16.485 22.4252 16.7228 22.5838 16.8018 22.9006C17.0395 24.0891 17.7527 24.9608 19.8129 24.9608C21.3182 24.9608 22.4277 24.0893 22.4277 22.8215C22.4277 21.5537 21.7146 21.0782 19.4959 20.6821C16.168 20.2859 14.5834 19.2559 14.5834 16.6411C14.5834 14.6602 16.0887 13.0756 18.4658 12.7586V10.9362C18.545 10.54 18.7828 10.3022 19.0998 10.3022H20.2883C20.6844 10.3815 20.9221 10.6192 20.9221 10.9362V12.8379C22.7445 12.9963 24.1707 14.3432 24.4877 16.0864V16.1657C24.4877 16.4826 24.25 16.7203 23.933 16.7203H22.6654C22.4277 16.7203 22.19 16.5619 22.1106 16.3241C21.7146 15.1356 20.9221 14.6602 19.4959 14.6602C17.9113 14.6602 17.1188 15.3731 17.1188 16.4826C17.1188 17.592 17.5942 18.2258 19.9713 18.5428Z" fill="white"></path><path d="M8.6398 15.7707C6.34184 21.8719 9.51134 28.7653 15.6917 30.9838C15.9294 31.1424 16.1671 31.4592 16.1671 31.6969V32.8063C16.1671 32.9647 16.1671 33.044 16.0878 33.1232C16.0087 33.4401 15.6917 33.5986 15.3747 33.4401C10.9376 32.0139 7.53042 28.6068 6.10414 24.1696C3.72709 16.6424 7.8474 8.63955 15.3747 6.26246C15.454 6.18335 15.6124 6.18335 15.6917 6.18335C16.0087 6.26246 16.1671 6.50016 16.1671 6.81719V7.92644C16.1671 8.3227 16.0087 8.56041 15.6917 8.71883C12.4431 9.90736 9.82832 12.4428 8.6398 15.7707Z" fill="white"></path><path d="M23.3781 6.57786C23.4573 6.26087 23.7742 6.10246 24.0912 6.26087C28.4491 7.68711 31.9355 11.0943 33.3617 15.6106C33.523 16.1215 33.6544 16.6345 33.7569 17.1477C32.9404 17.2705 32.1428 17.4722 31.3742 17.7466C30.63 13.7731 27.8601 10.2632 23.7742 8.79648C23.5365 8.63793 23.2988 8.32107 23.2988 8.00409V6.89484C23.2988 6.73629 23.2988 6.65714 23.3781 6.57786Z" fill="white"></path><path d="M23.3086 33.0942C23.3172 33.1498 23.3315 33.2021 23.3515 33.2506C23.3369 33.1986 23.3226 33.1465 23.3086 33.0942Z" fill="white"></path><mask id="mask1_5032_36336" maskUnits="userSpaceOnUse" x="24" y="19" width="22" height="21" style="mask-type: luminance;"><path d="M45.9429 19.02H24.9629V40H45.9429V19.02Z" fill="white"></path></mask><g mask="url(#mask1_5032_36336)"><path fill-rule="evenodd" clip-rule="evenodd" d="M35.4529 19.02C41.2468 19.02 45.9429 23.7161 45.9429 29.51C45.9429 35.3039 41.2468 40 35.4529 40C29.659 40 24.9629 35.3039 24.9629 29.51C24.9629 23.7161 29.659 19.02 35.4529 19.02Z" fill="#F0B90B"></path><path d="M30.73 29.5079L30.7375 32.2817L33.0945 33.6686V35.2925L29.3582 33.1013V28.6968L30.73 29.5079ZM30.73 26.7341V28.3505L29.3574 27.5385V25.9222L30.73 25.1101L32.1093 25.9222L30.73 26.7341ZM34.0787 25.9222L35.4513 25.1101L36.8306 25.9222L35.4513 26.7341L34.0787 25.9222Z" fill="white"></path><path d="M31.7188 31.7067V30.0828L33.0914 30.8948V32.5112L31.7188 31.7067ZM34.0757 34.2502L35.4483 35.0622L36.8276 34.2502V35.8666L35.4483 36.6786L34.0757 35.8666V34.2502ZM38.7962 25.9222L40.1688 25.1101L41.5481 25.9222V27.5385L40.1688 28.3505V26.7341L38.7962 25.9222ZM40.1688 32.2817L40.1763 29.5079L41.5489 28.6959V33.1003L37.8128 35.2917V33.6677L40.1688 32.2817Z" fill="white"></path><path d="M39.1871 31.7077L37.8145 32.512V30.8957L39.1871 30.0837V31.7077Z" fill="white"></path><path d="M39.1845 27.311L39.1921 28.935L36.8284 30.3219V33.1024L35.4558 33.9067L34.0832 33.1024V30.3219L31.7197 28.935V27.311L33.0982 26.499L35.4474 27.8926L37.8111 26.499L39.1904 27.311H39.1845ZM31.7188 24.5381L35.4483 22.3391L39.1845 24.5381L37.8119 25.35L35.4483 23.9564L33.0914 25.35L31.7188 24.5381Z" fill="white"></path></g></g></g><defs><clipPath id="clip0_5032_36336"><rect width="45.2459" height="40" fill="white" transform="translate(0.697266)"></rect></clipPath></defs></svg>
