<svg width="101" height="100" viewBox="0 0 101 100" fill="none" xmlns="http://www.w3.org/2000/svg" class="_methodIcon_do7cs_92"><path fill-rule="evenodd" clip-rule="evenodd" d="M48.101 86.272a44.174 44.174 0 0 1-4.358.215C19.78 86.487.5 67.207.5 43.243S19.78 0 43.743 0c23.964 0 43.244 19.28 43.244 43.243 0 1.472-.073 2.925-.215 4.358a30.365 30.365 0 0 0-9.92-1.655c-16.793 0-30.406 13.613-30.406 30.405 0 3.474.583 6.812 1.655 9.92Z" fill="#2775CA"></path><path d="M55.635 50.09c0-6.306-3.784-8.468-11.351-9.369-5.405-.72-6.487-2.162-6.487-4.685 0-2.523 1.802-4.144 5.406-4.144 3.243 0 5.045 1.081 5.946 3.784.18.54.72.9 1.261.9h2.883c.72 0 1.261-.54 1.261-1.26v-.18a9.002 9.002 0 0 0-8.108-7.388v-4.324c0-.721-.54-1.262-1.441-1.442h-2.703c-.72 0-1.261.54-1.442 1.442v4.144c-5.405.72-8.828 4.324-8.828 8.829 0 5.946 3.603 8.288 11.17 9.189 5.046.9 6.668 1.982 6.668 4.865s-2.523 4.865-5.946 4.865c-4.685 0-6.307-1.983-6.847-4.685-.18-.72-.72-1.081-1.261-1.081h-3.064c-.72 0-1.26.54-1.26 1.26v.181c.72 4.505 3.603 7.748 9.549 8.649v4.324c0 .72.54 1.261 1.44 1.442h2.704c.72 0 1.261-.541 1.441-1.442V59.64c5.406-.901 9.01-4.685 9.01-9.55Z" fill="#fff"></path><path fill-rule="evenodd" clip-rule="evenodd" d="M18.518 34.414C13.292 48.288 20.5 63.964 34.554 69.01c.54.36 1.081 1.081 1.081 1.621v2.523c0 .36 0 .54-.18.72-.18.722-.901 1.082-1.622.722-10.09-3.244-17.838-10.992-21.081-21.081-5.405-17.117 3.964-35.316 21.081-40.721.18-.18.54-.18.72-.18.722.18 1.082.72 1.082 1.441v2.522c0 .902-.36 1.442-1.081 1.802-7.387 2.703-13.333 8.469-16.036 16.036Zm33.514-20.9c.18-.721.9-1.082 1.621-.721 9.91 3.243 17.838 10.99 21.081 21.261A32.629 32.629 0 0 1 76.2 45.953c-1.942.04-3.839.264-5.675.652 1.266-11.938-5.72-23.785-17.592-28.046-.54-.36-1.08-1.081-1.08-1.802v-2.523c0-.36 0-.54.18-.72Z" fill="#fff"></path><path d="M100.5 76.351a23.648 23.648 0 1 0-47.297 0 23.648 23.648 0 0 0 47.297 0Z" fill="#000"></path><mask id="mask0_651_4060" maskUnits="userSpaceOnUse" x="63" y="65" width="28" height="22" style="mask-type: luminance;"><path d="M90.094 65.946H63.608v20.76h26.486v-20.76Z" fill="#fff"></path></mask><g mask="url(#mask0_651_4060)"><path d="M67.908 81.787a.868.868 0 0 1 .614-.252h21.14c.386 0 .58.467.306.74L85.79 86.45a.867.867 0 0 1-.61.252H64.041a.434.434 0 0 1-.307-.736l4.174-4.178Z" fill="url(#paint0_linear_651_4060)"></path><path d="M67.913 66.198a.892.892 0 0 1 .61-.252h21.139a.43.43 0 0 1 .307.736l-4.178 4.178a.867.867 0 0 1-.61.253H64.042a.434.434 0 0 1-.307-.74l4.178-4.175Z" fill="url(#paint1_linear_651_4060)"></path><path d="M85.79 73.944a.867.867 0 0 0-.61-.252H64.041a.433.433 0 0 0-.307.736l4.174 4.178c.16.16.379.253.614.253h21.14c.386 0 .58-.463.306-.74l-4.178-4.175Z" fill="url(#paint2_linear_651_4060)"></path></g><defs><linearGradient id="paint0_linear_651_4060" x1="87.642" y1="63.451" x2="73.012" y2="91.473" gradientUnits="userSpaceOnUse"><stop stop-color="#00FFA3"></stop><stop offset="1" stop-color="#DC1FFF"></stop></linearGradient><linearGradient id="paint1_linear_651_4060" x1="81.247" y1="60.11" x2="66.617" y2="88.132" gradientUnits="userSpaceOnUse"><stop stop-color="#00FFA3"></stop><stop offset="1" stop-color="#DC1FFF"></stop></linearGradient><linearGradient id="paint2_linear_651_4060" x1="84.423" y1="61.768" x2="69.793" y2="89.79" gradientUnits="userSpaceOnUse"><stop stop-color="#00FFA3"></stop><stop offset="1" stop-color="#DC1FFF"></stop></linearGradient></defs></svg>
