<svg width="71" height="60" viewBox="0 0 71 60" fill="none" xmlns="http://www.w3.org/2000/svg" class="_methodIcon_do7cs_92"><g clip-path="url(#clip0_1817_14668)"><path d="M38.3343 56.6462C35.4978 57.5671 32.4666 58.0645 29.3145 58.0645C13.2435 58.0645 0.314453 45.1354 0.314453 29.0645C0.314453 12.9936 13.2435 0.0645142 29.3145 0.0645142C44.2037 0.0645142 56.3961 11.1621 58.1086 25.5742C47.74 23.0774 37.283 29.4415 34.6905 39.8042C34.0678 42.2868 33.9411 44.8679 34.3177 47.3996C34.6943 49.9313 35.5669 52.3637 36.8853 54.5576C37.3232 55.2862 37.8074 55.9838 38.3343 56.6462Z" fill="#2775CA"></path><path d="M29.6767 27.373C34.7517 27.977 37.2892 29.427 37.2892 33.6561C37.2892 33.7232 37.2882 33.79 37.2862 33.8565C36.3902 35.2262 35.6562 36.7271 35.1178 38.3387C34.107 39.1993 32.7861 39.804 31.2477 40.0605V42.9605C31.1267 43.5645 30.7642 43.927 30.2808 43.927H28.4683C27.8642 43.8061 27.5017 43.4436 27.5017 42.9605V40.0605C23.5142 39.4561 21.5808 37.2811 21.0977 34.2605V34.1395C21.0977 33.6561 21.4602 33.2936 21.9433 33.2936H23.9977C24.3602 33.2936 24.7227 33.5355 24.8433 34.0186C25.2058 35.8311 26.2933 37.1605 29.4352 37.1605C31.7308 37.1605 33.4227 35.8314 33.4227 33.898C33.4227 31.9645 32.3352 31.2395 28.9517 30.6355C23.8767 30.0311 21.4602 28.4605 21.4602 24.473C21.4602 21.452 23.7558 19.0355 27.3808 18.552V15.773C27.5017 15.1686 27.8642 14.8061 28.3477 14.8061H30.1602C30.7642 14.927 31.1267 15.2895 31.1267 15.773V18.673C33.9058 18.9145 36.0808 20.9686 36.5642 23.627V23.748C36.5642 24.2311 36.2017 24.5936 35.7183 24.5936H33.7852C33.4227 24.5936 33.0602 24.352 32.9392 23.9895C32.3352 22.177 31.1267 21.452 28.9517 21.452C26.5352 21.452 25.3267 22.5392 25.3267 24.2311C25.3267 25.923 26.0517 26.8895 29.6767 27.373Z" fill="white"></path><path d="M12.3978 23.1436C8.89344 32.4479 13.7269 42.9604 23.1519 46.3436C23.5144 46.5854 23.8769 47.0686 23.8769 47.4311V49.1229C23.8769 49.3645 23.8769 49.4854 23.7559 49.6061C23.6353 50.0895 23.1519 50.3311 22.6684 50.0895C15.9019 47.9145 10.7059 42.7186 8.53094 35.952C4.90594 24.4729 11.1894 12.2686 22.6684 8.64359C22.7894 8.52295 23.0309 8.52295 23.1519 8.52295C23.6353 8.64359 23.8769 9.00609 23.8769 9.48952V11.1811C23.8769 11.7854 23.6353 12.1479 23.1519 12.3895C18.1978 14.202 14.2103 18.0686 12.3978 23.1436Z" fill="white"></path><path d="M34.8728 9.12702C34.9934 8.64359 35.4769 8.40202 35.9603 8.64359C42.6059 10.8186 47.9228 16.0145 50.0978 22.902C50.3438 23.681 50.5442 24.4633 50.7004 25.2461C49.4553 25.4333 48.239 25.7408 47.0668 26.1593C45.932 20.0998 41.7079 14.7471 35.4769 12.5104C35.1144 12.2686 34.7519 11.7854 34.7519 11.302V9.61045C34.7519 9.36859 34.7519 9.24795 34.8728 9.12702Z" fill="white"></path><path d="M34.7666 49.5638C34.7797 49.6486 34.8015 49.7284 34.8321 49.8024C34.8098 49.723 34.7879 49.6435 34.7666 49.5638Z" fill="white"></path><g clip-path="url(#clip1_1817_14668)"><path fill-rule="evenodd" clip-rule="evenodd" d="M68.6238 48.2614C66.5534 56.5396 58.1301 61.6068 49.8492 59.537C41.5323 57.4672 36.4996 49.0821 38.5695 40.7687C40.6398 32.4904 49.028 27.4232 57.3089 29.493C65.6254 31.5628 70.658 39.948 68.6233 48.2614H68.6238Z" fill="#6F7EDA"></path><path fill-rule="evenodd" clip-rule="evenodd" d="M53.5968 34.4146L53.4539 34.8787V48.2236L53.5968 48.3661L59.7717 44.691L53.5968 34.4141V34.4146Z" fill="white"></path><path fill-rule="evenodd" clip-rule="evenodd" d="M53.5972 34.4146L47.3867 44.6905L53.5972 48.3656V34.4146Z" fill="white"></path><path fill-rule="evenodd" clip-rule="evenodd" d="M53.5951 49.5399L53.4883 49.6111V54.3568L53.5956 54.6066L59.7705 45.8648L53.5956 49.5399H53.5951Z" fill="white"></path><path fill-rule="evenodd" clip-rule="evenodd" d="M53.5972 54.6066V49.5399L47.3867 45.8648L53.5972 54.6061V54.6066Z" fill="white"></path><path fill-rule="evenodd" clip-rule="evenodd" d="M53.5962 48.3697L59.7711 44.6946L53.5962 41.8758V48.3692V48.3697Z" fill="white"></path><path fill-rule="evenodd" clip-rule="evenodd" d="M47.3867 44.6946L53.5972 48.3697V41.8753L47.3867 44.6946Z" fill="white"></path></g></g><defs><clipPath id="clip0_1817_14668"><rect width="69.6774" height="60" fill="white" transform="translate(0.35498)"></rect></clipPath><clipPath id="clip1_1817_14668"><rect width="30.97" height="30.97" fill="white" transform="translate(38.105 29.03)"></rect></clipPath></defs></svg>
