<svg width="69" height="61" viewBox="0 0 69 61" fill="none" xmlns="http://www.w3.org/2000/svg" class="_methodIcon_do7cs_92"><g clip-path="url(#clip0_383_3312)"><path d="M38.0511 57.5505C35.2146 58.4714 32.1834 58.9688 29.0313 58.9688C12.9603 58.9688 0.03125 46.0397 0.03125 29.9688C0.03125 13.8979 12.9603 0.96875 29.0313 0.96875C43.9205 0.96875 56.1129 12.0664 57.8254 26.4785C47.4568 23.9817 36.9998 30.3458 34.4073 40.7084C33.7846 43.1911 33.6579 45.7722 34.0345 48.3038C34.4112 50.8355 35.2837 53.268 36.6021 55.4618C37.04 56.1905 37.5242 56.888 38.0511 57.5505Z" fill="#2775CA"></path><path d="M29.3954 28.2777C34.4704 28.8818 37.0079 30.3318 37.0079 34.5609C37.0079 34.628 37.0069 34.6948 37.0049 34.7612C36.1089 36.131 35.3749 37.6319 34.8365 39.2435C33.8257 40.104 32.5049 40.7087 30.9664 40.9652V43.8652C30.8454 44.4693 30.4829 44.8318 29.9995 44.8318H28.187C27.5829 44.7109 27.2204 44.3484 27.2204 43.8652V40.9652C23.2329 40.3609 21.2995 38.1859 20.8164 35.1652V35.0443C20.8164 34.5609 21.1789 34.1984 21.662 34.1984H23.7164C24.0789 34.1984 24.4414 34.4402 24.562 34.9234C24.9245 36.7359 26.012 38.0652 29.1539 38.0652C31.4495 38.0652 33.1414 36.7362 33.1414 34.8027C33.1414 32.8693 32.0539 32.1443 28.6704 31.5402C23.5954 30.9359 21.1789 29.3652 21.1789 25.3777C21.1789 22.3568 23.4745 19.9402 27.0995 19.4568V16.6777C27.2204 16.0734 27.5829 15.7109 28.0664 15.7109H29.8789C30.4829 15.8318 30.8454 16.1943 30.8454 16.6777V19.5777C33.6245 19.8193 35.7995 21.8734 36.2829 24.5318V24.6527C36.2829 25.1359 35.9204 25.4984 35.437 25.4984H33.5039C33.1414 25.4984 32.7789 25.2568 32.6579 24.8943C32.0539 23.0818 30.8454 22.3568 28.6704 22.3568C26.2539 22.3568 25.0454 23.444 25.0454 25.1359C25.0454 26.8277 25.7704 27.7943 29.3954 28.2777Z" fill="white"></path><path d="M12.1151 24.0504C8.61072 33.3547 13.4442 43.8672 22.8692 47.2504C23.2317 47.4922 23.5942 47.9754 23.5942 48.3379V50.0297C23.5942 50.2713 23.5942 50.3922 23.4733 50.5129C23.3526 50.9963 22.8692 51.2379 22.3858 50.9963C15.6192 48.8213 10.4233 43.6254 8.24822 36.8588C4.62322 25.3797 10.9067 13.1754 22.3858 9.55033C22.5067 9.42969 22.7483 9.42969 22.8692 9.42969C23.3526 9.55033 23.5942 9.91283 23.5942 10.3963V12.0879C23.5942 12.6922 23.3526 13.0547 22.8692 13.2963C17.9151 15.1088 13.9276 18.9754 12.1151 24.0504Z" fill="white"></path><path d="M34.5897 10.0313C34.7104 9.54789 35.1938 9.30632 35.6772 9.54789C42.3229 11.7229 47.6397 16.9188 49.8147 23.8063C50.0607 24.5853 50.2611 25.3676 50.4173 26.1503C49.1722 26.3375 47.9559 26.6451 46.7838 27.0636C45.6489 21.004 41.4248 15.6514 35.1938 13.4147C34.8313 13.1729 34.4688 12.6897 34.4688 12.2063V10.5147C34.4688 10.2729 34.4688 10.1522 34.5897 10.0313Z" fill="white"></path><path d="M34.4844 50.4688C34.4975 50.5535 34.5193 50.6333 34.5498 50.7073C34.5275 50.628 34.5057 50.5485 34.4844 50.4688Z" fill="white"></path><path d="M53.1488 60C61.4483 60 68.1758 53.2845 68.1758 45C68.1758 36.7155 61.4483 30 53.1488 30C45.2768 30 38.8178 36.045 38.1758 43.74H58.0358V46.26H38.1758C38.8178 53.955 45.2768 60 53.1488 60Z" fill="#0052FF"></path></g><defs><clipPath id="clip0_383_3312"><rect width="69" height="61" fill="white"></rect></clipPath></defs></svg>
