<svg xmlns="http://www.w3.org/2000/svg" width="69" height="61" viewBox="0 0 69 61" class="_methodIcon_do7cs_92"><path d="M29.273.06c14.84 0 27.08 11.137 28.819 25.51a19.273 19.273 0 00-3.658-.348c-10.69 0-19.355 8.665-19.355 19.355 0 4.457 1.508 8.562 4.04 11.835a28.955 28.955 0 01-9.846 1.713C13.239 58.125.24 45.126.24 29.093.24 13.059 13.24.06 29.273.06z" fill="#26A17B"></path><path d="M42.24 14.339v6.576h-9.873v4.313c5.807.27 10.562 1.18 12.746 2.382-.266.146-.528.299-.786.457-1.336-1.16-6.01-2.071-11.962-2.34v4.817c-.203.02-1.304.113-3.509.113h-.414a52.417 52.417 0 01-3.213-.113v-4.82c-7.084.31-12.377 1.547-12.377 3.024 0 1.479 5.288 2.71 12.38 3.023.456.02 1.749.07 3.592.07 2.307 0 3.342-.058 3.541-.073 3.368-.142 6.326-.5 8.503-.993-.468.457-.91.939-1.328 1.44-2.07.36-4.51.615-7.169.737v13.825h-7.136V32.952c-8.018-.373-14.053-1.958-14.053-3.863s6.029-3.492 14.053-3.861v-4.313h-9.87V14.34H42.24z" fill="#fff"></path><circle cx="54.435" cy="44.576" r="15.485" fill="#8247E5"></circle><g clip-path="url(#clip0_2476_16885)"><path d="M59.75 41.301c-.377-.215-.862-.215-1.293 0l-3.02 1.78-2.05 1.132-2.966 1.78c-.377.216-.862.216-1.294 0l-2.319-1.402a1.314 1.314 0 01-.647-1.133v-2.696c0-.431.216-.863.647-1.132l2.32-1.349c.377-.215.862-.215 1.293 0l2.32 1.403c.377.215.646.647.646 1.132v1.78l2.05-1.187v-1.833a1.33 1.33 0 00-.648-1.133l-4.314-2.535c-.377-.215-.863-.215-1.294 0l-4.422 2.59a1.186 1.186 0 00-.647 1.078v5.069c0 .431.215.863.647 1.132l4.368 2.535c.378.216.863.216 1.294 0l2.966-1.726 2.05-1.186 2.966-1.726c.377-.216.863-.216 1.294 0l2.319 1.348c.377.216.647.648.647 1.133v2.696c0 .432-.216.863-.647 1.133l-2.265 1.348c-.378.216-.863.216-1.294 0l-2.32-1.348a1.314 1.314 0 01-.646-1.133v-1.725l-2.05 1.186v1.78c0 .431.216.862.648 1.132l4.368 2.535c.377.215.862.215 1.294 0l4.368-2.535c.377-.216.647-.647.647-1.132v-5.124a1.33 1.33 0 00-.647-1.132L59.751 41.3z" fill="#fff"></path></g><defs><clipPath id="clip0_2476_16885"><path fill="#fff" transform="translate(44.112 35.8)" d="M0 0h20.708v18.066H0z"></path></clipPath></defs></svg>
