<svg width="36" height="31" viewBox="0 0 36 31" fill="none" xmlns="http://www.w3.org/2000/svg" class="_methodIcon_do7cs_92"><g clip-path="url(#clip0_383_3262)"><path d="M15 0C22.668 0 28.992 5.754 29.89 13.18C29.2672 13.0599 28.6343 12.9996 28 13C22.477 13 18 17.477 18 23C18 25.303 18.779 27.424 20.087 29.115C18.4554 29.7026 16.7341 30.0021 15 30C6.716 30 0 23.284 0 15C0 6.716 6.716 0 15 0Z" fill="#26A17B"></path><path d="M21.6993 7.37891V10.7769H16.5983V13.0049C19.5983 13.1449 22.0553 13.6149 23.1833 14.2359C23.0461 14.3113 22.9108 14.39 22.7773 14.4719C22.0873 13.8729 19.6723 13.4019 16.5973 13.2629V15.7519C16.4923 15.7619 15.9233 15.8099 14.7843 15.8099H14.5703C14.0165 15.8076 13.463 15.7882 12.9103 15.7519V13.2609C9.25034 13.4219 6.51534 14.0609 6.51534 14.8239C6.51534 15.5879 9.24734 16.2239 12.9113 16.3859C13.1473 16.3959 13.8153 16.4219 14.7673 16.4219C15.9593 16.4219 16.4943 16.3919 16.5973 16.3839C18.3373 16.3109 19.8653 16.1259 20.9903 15.8709C20.7483 16.1069 20.5203 16.3559 20.3043 16.6149C19.2343 16.8009 17.9743 16.9329 16.6003 16.9959V24.1389H12.9133V16.9959C8.77034 16.8029 5.65234 15.9839 5.65234 14.9999C5.65234 14.0159 8.76734 13.1959 12.9133 13.0049V10.7769H7.81334V7.37891H21.6983H21.6993Z" fill="white"></path><g clip-path="url(#clip1_383_3262)"><path fill-rule="evenodd" clip-rule="evenodd" d="M28 15C32.4186 15 36 18.5814 36 23C36 27.4186 32.4186 31 28 31C23.5814 31 20 27.4186 20 23C20 18.5814 23.5814 15 28 15Z" fill="#F0B90B"></path><path d="M24.3984 22.9984L24.4041 25.1138L26.2016 26.1715V27.4099L23.3522 25.7388V22.3798L24.3984 22.9984ZM24.3984 20.883V22.1157L23.3516 21.4965V20.2638L24.3984 19.6445L25.4503 20.2638L24.3984 20.883ZM26.9522 20.2638L27.999 19.6445L29.0509 20.2638L27.999 20.883L26.9522 20.2638Z" fill="white"></path><path d="M25.1523 24.6753V23.4368L26.1991 24.0561V25.2888L25.1523 24.6753ZM26.9498 26.615L27.9966 27.2343L29.0485 26.615V27.8477L27.9966 28.467L26.9498 27.8477V26.615ZM30.5498 20.2638L31.5966 19.6445L32.6485 20.2638V21.4965L31.5966 22.1157V20.883L30.5498 20.2638ZM31.5966 25.1138L31.6023 22.9984L32.6491 22.3791V25.7381L29.7998 27.4093V26.1708L31.5966 25.1138Z" fill="white"></path><path d="M30.8476 24.676L29.8008 25.2894V24.0567L30.8476 23.4375V24.676Z" fill="white"></path><path d="M30.8459 21.3229L30.8517 22.5614L29.0491 23.6191V25.7396L28.0023 26.353L26.9555 25.7396V23.6191L25.153 22.5614V21.3229L26.2043 20.7037L27.9959 21.7665L29.7985 20.7037L30.8504 21.3229H30.8459ZM25.1523 19.2082L27.9966 17.5312L30.8459 19.2082L29.7991 19.8274L27.9966 18.7646L26.1991 19.8274L25.1523 19.2082Z" fill="white"></path></g></g><defs><clipPath id="clip0_383_3262"><rect width="36" height="31" fill="white"></rect></clipPath><clipPath id="clip1_383_3262"><rect width="16" height="16" fill="white" transform="translate(20 15)"></rect></clipPath></defs></svg>
