<svg xmlns="http://www.w3.org/2000/svg" width="36" height="31" viewBox="0 0 36 31" class="_methodIcon_do7cs_92"><g fill="none" fill-rule="evenodd"><g fill-rule="nonzero"><path fill="#26A17B" d="M15 0c7.668 0 13.992 5.754 14.89 13.18A9.954 9.954 0 0 0 28 13c-5.523 0-10 4.477-10 10 0 2.303.779 4.424 2.087 6.115A14.96 14.96 0 0 1 15 30C6.716 30 0 23.284 0 15 0 6.716 6.716 0 15 0z"></path><path fill="#FFF" d="M21.7 7.377v3.398h-5.101v2.228c3 .14 5.457.61 6.585 1.231a9.77 9.77 0 0 0-.406.236c-.69-.599-3.105-1.07-6.18-1.209v2.489c-.105.01-.674.058-1.813.058h-.214a27.08 27.08 0 0 1-1.66-.058v-2.491c-3.66.161-6.395.8-6.395 1.563 0 .764 2.732 1.4 6.396 1.562.236.01.904.036 1.856.036 1.192 0 1.727-.03 1.83-.038 1.74-.073 3.268-.258 4.393-.513-.242.236-.47.485-.686.744-1.07.186-2.33.318-3.704.381v7.143h-3.687v-7.143c-4.143-.193-7.261-1.012-7.261-1.996s3.115-1.804 7.261-1.995v-2.228h-5.1V7.377h13.885z"></path></g><circle cx="28" cy="23" r="8" fill="#EB0029"></circle><path fill="#FFF" fill-rule="nonzero" d="M31.734 19.529 23 18l4.596 11L34 21.579l-2.266-2.05zm-.141.674 1.336 1.207-3.655.63 2.319-1.837zm-3.112 1.71-3.852-3.038 6.296 1.102-2.444 1.936zm-.274.538-.628 4.938-3.387-8.105 4.015 3.167zm.58.262 4.047-.697-4.64 5.379.594-4.682z"></path></g></svg>
