<svg width="47" height="40" viewBox="0 0 47 40" fill="none" xmlns="http://www.w3.org/2000/svg" class="_methodIcon_do7cs_92"><g clip-path="url(#clip0_5032_36365)"><mask id="mask0_5032_36365" maskUnits="userSpaceOnUse" x="0" y="0" width="47" height="40" style="mask-type: luminance;"><path d="M46.6977 0H0.246094V40H46.6977V0Z" fill="white"></path></mask><g mask="url(#mask0_5032_36365)"><path d="M19.6009 0C29.4951 0 37.6551 7.42452 38.8138 17.0065C38.0102 16.8515 37.1936 16.7737 36.3751 16.7742C29.2487 16.7742 23.4719 22.551 23.4719 29.6774C23.4719 32.649 24.4771 35.3858 26.1648 37.5677C24.0595 38.3259 21.8385 38.7124 19.6009 38.7097C8.9119 38.7097 0.246094 30.0439 0.246094 19.3548C0.246094 8.66581 8.9119 0 19.6009 0Z" fill="#26A17B"></path><path d="M28.2448 9.52124V13.9057H21.6629V16.7806C25.5339 16.9612 28.7042 17.5677 30.1597 18.369C29.9826 18.4663 29.808 18.5678 29.6358 18.6735C28.7455 17.9006 25.6293 17.2928 21.6616 17.1135V20.3251C21.5261 20.338 20.7919 20.3999 19.3222 20.3999H19.0461C18.3315 20.397 17.6173 20.3719 16.9042 20.3251V17.1109C12.1816 17.3186 8.65261 18.1432 8.65261 19.1277C8.65261 20.1135 12.1778 20.9341 16.9055 21.1432C17.21 21.1561 18.0719 21.1896 19.3003 21.1896C20.8384 21.1896 21.5287 21.1509 21.6616 21.1406C23.9068 21.0464 25.8784 20.8077 27.33 20.4786C27.0177 20.7832 26.7235 21.1045 26.4448 21.4386C25.0642 21.6786 23.4384 21.849 21.6655 21.9303V31.147H16.908V21.9303C11.5623 21.6812 7.53906 20.6245 7.53906 19.3548C7.53906 18.0851 11.5584 17.027 16.908 16.7806V13.9057H10.3274V9.52124H28.2435H28.2448Z" fill="white"></path><mask id="mask1_5032_36365" maskUnits="userSpaceOnUse" x="26" y="19" width="21" height="21" style="mask-type: luminance;"><path d="M46.6979 19.3547H26.0527V39.9999H46.6979V19.3547Z" fill="white"></path></mask><g mask="url(#mask1_5032_36365)"><path d="M46.7008 29.6773C46.7008 23.975 42.0781 19.3523 36.3758 19.3523C30.6734 19.3523 26.0508 23.975 26.0508 29.6773C26.0508 35.3796 30.6734 40.0023 36.3758 40.0023C42.0781 40.0023 46.7008 35.3796 46.7008 29.6773Z" fill="#2C374B"></path><mask id="mask2_5032_36365" maskUnits="userSpaceOnUse" x="29" y="22" width="15" height="15" style="mask-type: luminance;"><path d="M43.5661 22.5791H29.3555V36.7897H43.5661V22.5791Z" fill="white"></path></mask><g mask="url(#mask2_5032_36365)"><mask id="mask3_5032_36365" maskUnits="userSpaceOnUse" x="29" y="22" width="16" height="16" style="mask-type: luminance;"><path d="M29.3555 22.5793H44.184V37.4079H29.3555V22.5793Z" fill="white"></path></mask><g mask="url(#mask3_5032_36365)"><mask id="mask4_5032_36365" maskUnits="userSpaceOnUse" x="29" y="22" width="15" height="15" style="mask-type: luminance;"><path d="M29.3555 22.5796H43.5908V36.8149H29.3555V22.5796Z" fill="white"></path></mask><g mask="url(#mask4_5032_36365)"><path d="M30.6445 26.9074V32.4879C30.6445 32.8462 30.8323 33.1712 31.145 33.3528L35.9797 36.1437C36.1314 36.2304 36.3031 36.276 36.478 36.276C36.6528 36.276 36.8245 36.2304 36.9763 36.1437L41.811 33.3535C42.1181 33.1767 42.3115 32.8468 42.3115 32.4879V26.9074C42.3117 26.7319 42.2656 26.5594 42.1777 26.4075C42.0898 26.2556 41.9633 26.1296 41.811 26.0424L36.9756 23.2516C36.8239 23.1648 36.6521 23.1191 36.4774 23.1191C36.3026 23.1191 36.1308 23.1648 35.9791 23.2516L31.1456 26.0418C30.9941 26.1297 30.8685 26.256 30.7815 26.408C30.6945 26.56 30.6492 26.7322 30.6501 26.9074H30.6445Z" fill="#213147"></path><path d="M37.5318 30.7762L36.8429 32.6668C36.8258 32.7205 36.8258 32.7781 36.8429 32.8318L38.0273 36.083L39.3989 35.2921L37.7536 30.7762C37.7451 30.7537 37.7299 30.7344 37.7101 30.7207C37.6903 30.707 37.6668 30.6997 37.6427 30.6997C37.6186 30.6997 37.5951 30.707 37.5753 30.7207C37.5555 30.7344 37.5403 30.7537 37.5318 30.7762ZM38.9151 27.5992C38.9066 27.5767 38.8915 27.5574 38.8716 27.5437C38.8518 27.53 38.8283 27.5227 38.8043 27.5227C38.7802 27.5227 38.7567 27.53 38.7369 27.5437C38.7171 27.5574 38.7019 27.5767 38.6933 27.5992L38.0045 29.4898C37.9874 29.5435 37.9874 29.6011 38.0045 29.6548L39.9463 34.9788L41.318 34.1868L38.9151 27.6048V27.5992Z" fill="#12AAFF"></path><path d="M36.4769 23.4619C36.5113 23.4627 36.5448 23.4727 36.5739 23.4909L41.801 26.5085C41.831 26.5258 41.8557 26.5507 41.8728 26.5808C41.8899 26.611 41.8985 26.6451 41.8979 26.6797V32.7148C41.8973 32.7492 41.8881 32.7829 41.8712 32.8127C41.8542 32.8426 41.8301 32.8678 41.801 32.886L36.5739 35.9036C36.5447 35.9216 36.5112 35.9314 36.4769 35.932C36.4426 35.9314 36.4091 35.9216 36.3799 35.9036L31.1528 32.886C31.1228 32.8687 31.098 32.8438 31.081 32.8137C31.0639 32.7836 31.0552 32.7494 31.0559 32.7148V26.6735C31.0559 26.6055 31.096 26.5376 31.1528 26.5029L36.3799 23.4847C36.4091 23.4667 36.4426 23.4569 36.4769 23.4563V23.4619ZM36.4769 22.5796C36.2891 22.5796 36.1068 22.6253 35.9363 22.7217L30.7093 25.7399C30.5446 25.8339 30.4079 25.9698 30.3128 26.1337C30.2178 26.2977 30.1678 26.484 30.168 26.6735V32.7099C30.168 33.0967 30.3725 33.4495 30.7086 33.6429L35.9356 36.6611C36.1012 36.7581 36.2891 36.8032 36.4769 36.8032C36.6647 36.8032 36.8476 36.7581 37.0182 36.6611L42.2452 33.6435C42.5813 33.4495 42.7858 33.0967 42.7858 32.7093V26.6735C42.7858 26.2867 42.5813 25.9333 42.2452 25.7399L37.012 22.7217C36.8475 22.6272 36.661 22.5781 36.4713 22.5796H36.4769Z" fill="#9DCCED"></path><path d="M33.0143 34.9894L33.498 33.6685L34.4662 34.4717L33.5599 35.3021L33.0137 34.9888L33.0143 34.9894Z" fill="#213147"></path><path d="M36.0324 26.2486H34.7059C34.6577 26.2491 34.6107 26.2639 34.5711 26.2913C34.5314 26.3188 34.5009 26.3575 34.4834 26.4025L31.6426 34.1911L33.0142 34.9825L36.1467 26.4018C36.1535 26.3841 36.1559 26.365 36.1537 26.3462C36.1515 26.3274 36.1448 26.3093 36.1341 26.2937C36.1234 26.278 36.109 26.2651 36.0923 26.2562C36.0756 26.2473 36.057 26.2426 36.038 26.2424L36.0324 26.2486ZM38.3556 26.2486H37.029C36.9808 26.2491 36.9338 26.2639 36.8942 26.2913C36.8545 26.3188 36.824 26.3575 36.8066 26.4025L33.5623 35.2964L34.9339 36.0879L38.4643 26.4025C38.4711 26.3848 38.4735 26.3658 38.4713 26.347C38.4691 26.3282 38.4624 26.3102 38.4519 26.2945C38.4412 26.2789 38.4269 26.266 38.4103 26.2571C38.3936 26.2481 38.3751 26.2433 38.3562 26.243L38.3556 26.2486Z" fill="white"></path></g></g></g></g></g></g><defs><clipPath id="clip0_5032_36365"><rect width="46.4516" height="40" fill="white" transform="translate(0.246094)"></rect></clipPath></defs></svg>
