<svg width="71" height="60" viewBox="0 0 71 60" fill="none" xmlns="http://www.w3.org/2000/svg" class="_methodIcon_do7cs_92"><g clip-path="url(#clip0_630_767)"><path d="M29.7097 0C44.551 0 56.791 11.1368 58.5291 25.5097C57.3236 25.2773 56.0987 25.1606 54.871 25.1613C44.1814 25.1613 35.5162 33.8265 35.5162 44.5161C35.5162 48.9735 37.0239 53.0787 39.5556 56.3516C36.3977 57.4889 33.0662 58.0685 29.7097 58.0645C13.6762 58.0645 0.67749 45.0658 0.67749 29.0323C0.67749 12.9987 13.6762 0 29.7097 0Z" fill="#26A17B"></path><path d="M42.6776 14.2781V20.8549H32.8047V25.1671C38.6112 25.4381 43.3666 26.3478 45.5499 27.5497C45.2843 27.6956 45.0223 27.8479 44.7641 28.0065C43.4286 26.8471 38.7544 25.9355 32.8028 25.6665V30.4839C32.5995 30.5032 31.4982 30.5961 29.2937 30.5961H28.8795C27.8077 30.5916 26.7362 30.5541 25.6666 30.4839V25.6626C18.5828 25.9742 13.2892 27.211 13.2892 28.6878C13.2892 30.1665 18.577 31.3974 25.6686 31.711C26.1253 31.7303 27.4182 31.7807 29.2608 31.7807C31.5679 31.7807 32.6034 31.7226 32.8028 31.7071C36.1705 31.5658 39.1279 31.2078 41.3053 30.7142C40.837 31.171 40.3957 31.6529 39.9776 32.1542C37.9066 32.5142 35.4679 32.7697 32.8086 32.8916V46.7168H25.6724V32.8916C17.6537 32.5181 11.6189 30.9329 11.6189 29.0284C11.6189 27.1239 17.6479 25.5368 25.6724 25.1671V20.8549H15.8015V14.2781H42.6757H42.6776Z" fill="white"></path><g clip-path="url(#clip1_630_767)"><path fill-rule="evenodd" clip-rule="evenodd" d="M69.9062 48.2614C67.8359 56.5396 59.4126 61.6068 51.1317 59.537C42.8147 57.4672 37.7821 49.0821 39.8519 40.7687C41.9223 32.4904 50.3105 27.4232 58.5914 29.493C66.9078 31.5628 71.9405 39.948 69.9057 48.2614H69.9062Z" fill="#6F7EDA"></path><path fill-rule="evenodd" clip-rule="evenodd" d="M54.8793 34.4146L54.7363 34.8787V48.2236L54.8793 48.3661L61.0542 44.691L54.8793 34.4141V34.4146Z" fill="white"></path><path fill-rule="evenodd" clip-rule="evenodd" d="M54.8797 34.4146L48.6692 44.6905L54.8797 48.3656V34.4146Z" fill="white"></path><path fill-rule="evenodd" clip-rule="evenodd" d="M54.8776 49.5399L54.7708 49.6111V54.3567L54.8781 54.6065L61.053 45.8647L54.8781 49.5399H54.8776Z" fill="white"></path><path fill-rule="evenodd" clip-rule="evenodd" d="M54.8797 54.6065V49.5399L48.6692 45.8647L54.8797 54.606V54.6065Z" fill="white"></path><path fill-rule="evenodd" clip-rule="evenodd" d="M54.8787 48.3697L61.0536 44.6946L54.8787 41.8758V48.3692V48.3697Z" fill="white"></path><path fill-rule="evenodd" clip-rule="evenodd" d="M48.6692 44.6946L54.8797 48.3697V41.8753L48.6692 44.6946Z" fill="white"></path></g></g><defs><clipPath id="clip0_630_767"><rect width="69.6774" height="60" fill="white" transform="translate(0.67749)"></rect></clipPath><clipPath id="clip1_630_767"><rect width="30.97" height="30.97" fill="white" transform="translate(39.3875 29.03)"></rect></clipPath></defs></svg>
