<svg width="48" height="40" viewBox="0 0 48 40" fill="none" xmlns="http://www.w3.org/2000/svg" class="_methodIcon_do7cs_92"><path d="M19.9564 0C29.8506 0 38.0106 7.42451 39.1693 17.0064C38.3656 16.8515 37.549 16.7737 36.7306 16.7742C29.6041 16.7742 23.8273 22.5509 23.8273 29.6774C23.8273 32.649 24.8325 35.3858 26.5202 37.5677C24.415 38.3259 22.194 38.7123 19.9564 38.7096C9.26736 38.7096 0.601562 30.0438 0.601562 19.3548C0.601562 8.6658 9.26736 0 19.9564 0Z" fill="#26A17B"></path><path d="M28.6023 9.51868V13.9032H22.0203V16.778C25.8913 16.9587 29.0616 17.5651 30.5171 18.3664C30.3401 18.4637 30.1654 18.5652 29.9932 18.6709C29.1029 17.898 25.9868 17.2903 22.019 17.1109V20.3225C21.8836 20.3354 21.1494 20.3974 19.6797 20.3974H19.4036C18.689 20.3943 17.9747 20.3694 17.2616 20.3225V17.1083C12.5391 17.3161 9.01003 18.1406 9.01003 19.1251C9.01003 20.1109 12.5352 20.9316 17.2629 21.1406C17.5674 21.1535 18.4294 21.1871 19.6578 21.1871C21.1958 21.1871 21.8861 21.1483 22.019 21.138C24.2642 21.0438 26.2358 20.8051 27.6874 20.4761C27.3752 20.7806 27.081 21.1019 26.8023 21.4361C25.4216 21.6761 23.7958 21.8464 22.0229 21.9277V31.1445H17.2655V21.9277C11.9197 21.6787 7.89648 20.6219 7.89648 19.3522C7.89648 18.0825 11.9158 17.0245 17.2655 16.778V13.9032H10.6849V9.51868H28.601H28.6023Z" fill="white"></path><circle cx="36.7315" cy="29.6766" r="10.3233" fill="#4DA2FF"></circle><path fill-rule="evenodd" clip-rule="evenodd" d="M33.7633 28.2648C33.2418 28.9236 32.9299 29.7568 32.9299 30.6631C32.9299 31.5694 33.2512 32.428 33.7865 33.0905L33.8329 33.1477L33.8449 33.0751C33.8555 33.0136 33.8676 32.9511 33.8818 32.8886C34.15 31.7034 35.0234 30.6875 36.4611 29.8644C37.432 29.31 37.9878 28.6432 38.1337 27.8848C38.228 27.3946 38.1579 26.9022 38.0225 26.4803C37.8871 26.059 37.6859 25.7054 37.5147 25.4929L36.9552 24.8049C36.8572 24.6841 36.6734 24.6841 36.5754 24.8049L33.7628 28.2648H33.7633ZM32.8788 27.5774L36.6275 22.9664C36.6992 22.8784 36.833 22.8784 36.9046 22.9664L40.6529 27.5774L40.665 27.5928C41.3546 28.454 41.7676 29.5485 41.7676 30.7399C41.7676 33.5145 39.5281 35.7638 36.7661 35.7638C34.004 35.7638 31.7646 33.5145 31.7646 30.7399C31.7646 29.5485 32.1776 28.454 32.8672 27.5933L32.8793 27.5779L32.8788 27.5774ZM39.7557 28.25L39.4207 27.8371L39.4106 27.9134C39.4027 27.9738 39.3927 28.0343 39.3812 28.0952C39.1641 29.2406 38.3892 30.1951 37.0938 30.9344C35.9675 31.5795 35.3116 32.3209 35.123 33.1339C35.044 33.4732 35.0303 33.807 35.0645 34.0991L35.0666 34.1171L35.0829 34.125C35.5913 34.3746 36.1629 34.5151 36.7666 34.5151C38.8849 34.5151 40.6023 32.7905 40.6023 30.6625C40.6023 29.7488 40.2857 28.9098 39.7568 28.2489L39.7557 28.25Z" fill="white"></path></svg>
